<!-- Generated by IcoMoon.io -->
<svg version="1.1" xmlns="http://www.w3.org/2000/svg" width="20" height="20" viewBox="0 0 20 20">
<title>vk</title>
<path d="M0.625 2.383v15.234c0 0.967 0.791 1.758 1.758 1.758h15.234c0.967 0 1.758-0.791 1.758-1.758v-15.234c0-0.967-0.791-1.758-1.758-1.758h-15.234c-0.967 0-1.758 0.791-1.758 1.758zM13.75 4.188l0.026 1.714c0 0 0.073 0.37-0.26 0.853-0.439 0.641-1.586 1.245-1.436 1.717 0.15 0.476 1.179 0.461 1.179 0.461s0.22-0.004 0.337 0.106c0.128 0.117 0.154 0.352 0.154 0.352v0.766c0 0 0.103 1.692-1.45 3.182-1.692 1.626-5.050 3.062-5.050 3.062s-0.22 0.084-0.326-0.007c-0.121-0.103-0.128-0.377-0.128-0.377l-0.011-1.835c0 0 0.029-0.172 0.121-0.297 0.073-0.103 0.216-0.158 0.216-0.158s0.751-0.297 1.428-0.688c1.322-0.766 1.611-1.124 1.472-1.384-0.205-0.377-1.871-0.264-1.871-0.264s-0.604-0.007-0.872 0.19c-0.209 0.154-0.271 0.443-0.286 0.568-0.015 0.103-0.253-0.066-0.363-0.286-0.161-0.33-0.172-0.912-0.165-1.6 0.004-0.535 0.040-0.692 0.088-0.901 0.154-0.634 0.743-0.417 2.157-0.417 0.454 0 1.091 0.081 1.3-0.245 0.092-0.139 0.015-0.483-1.447-1.344-0.692-0.406-1.505-0.714-1.505-0.714s-0.146-0.066-0.209-0.168c-0.062-0.106-0.044-0.249-0.044-0.249l-0.011-1.93c0 0-0.069-0.579 0.194-0.674 0.275-0.099 0.916 0.216 1.966 1.003 1.725 1.293 1.564 1.439 2.56 0.362 0.952-1.025 1.417-1.238 1.476-1.274 0.703-0.417 0.758 0.476 0.758 0.476z"></path>
</svg>
