<!-- Generated by IcoMoon.io -->
<svg version="1.1" xmlns="http://www.w3.org/2000/svg" width="20" height="20" viewBox="0 0 20 20">
<title>vk</title>
<path d="M17.617 0.625h-15.234c-0.967 0-1.758 0.791-1.758 1.758v15.234c0 0.967 0.791 1.758 1.758 1.758h15.234c0.967 0 1.758-0.791 1.758-1.758v-15.234c0-0.967-0.791-1.758-1.758-1.758zM15.812 13.75l-1.714 0.026c0 0-0.37 0.073-0.853-0.26-0.641-0.439-1.245-1.586-1.717-1.436-0.476 0.15-0.461 1.179-0.461 1.179s0.004 0.22-0.106 0.337c-0.117 0.128-0.352 0.154-0.352 0.154h-0.766c0 0-1.692 0.103-3.182-1.45-1.626-1.692-3.062-5.050-3.062-5.050s-0.084-0.22 0.007-0.326c0.103-0.121 0.377-0.128 0.377-0.128l1.835-0.011c0 0 0.172 0.029 0.297 0.121 0.103 0.073 0.158 0.216 0.158 0.216s0.297 0.751 0.688 1.428c0.766 1.322 1.124 1.611 1.384 1.472 0.377-0.205 0.264-1.871 0.264-1.871s0.007-0.604-0.19-0.872c-0.154-0.209-0.443-0.271-0.568-0.286-0.103-0.015 0.066-0.253 0.286-0.363 0.33-0.161 0.912-0.172 1.6-0.165 0.535 0.004 0.692 0.040 0.901 0.088 0.634 0.154 0.417 0.743 0.417 2.157 0 0.454-0.081 1.091 0.245 1.3 0.139 0.092 0.483 0.015 1.344-1.447 0.406-0.692 0.714-1.505 0.714-1.505s0.066-0.146 0.168-0.209c0.106-0.062 0.249-0.044 0.249-0.044l1.93-0.011c0 0 0.579-0.069 0.674 0.194 0.099 0.275-0.216 0.916-1.003 1.966-1.293 1.725-1.439 1.564-0.362 2.56 1.025 0.952 1.238 1.417 1.274 1.476 0.417 0.703-0.476 0.758-0.476 0.758z"></path>
</svg>
