<!-- Generated by IcoMoon.io -->
<svg version="1.1" xmlns="http://www.w3.org/2000/svg" width="65" height="65" viewBox="0 0 65 65">
<title>python</title>
<path fill="#3776ab" d="M38.756 0.487l2.438 0.542 1.977 0.704 1.598 0.813 1.219 0.867 0.921 0.921 0.677 0.921 0.433 0.894 0.271 0.813 0.108 0.704 0.054 0.542-0.027 0.352v14.463l-0.135 1.706-0.352 1.49-0.569 1.246-0.704 1.029-0.813 0.84-0.894 0.677-0.948 0.515-0.948 0.379-0.894 0.271-0.813 0.19-0.704 0.108-0.569 0.054h-16.169l-1.869 0.135-1.598 0.379-1.354 0.596-1.11 0.731-0.894 0.867-0.731 0.948-0.542 0.975-0.406 1.002-0.271 0.948-0.19 0.867-0.108 0.731-0.054 0.569v8.288h-6.040l-0.569-0.081-0.758-0.19-0.867-0.325-0.948-0.487-0.975-0.704-0.975-0.975-0.948-1.246-0.867-1.598-0.758-1.977-0.569-2.383-0.379-2.844-0.135-3.331 0.163-3.304 0.433-2.817 0.65-2.356 0.867-1.923 0.975-1.544 1.083-1.192 1.138-0.894 1.137-0.65 1.083-0.433 0.975-0.271 0.867-0.135 0.65-0.027h0.433l0.162 0.027h22.1v-2.248h-15.817l-0.027-7.448-0.054-1.002 0.135-0.921 0.298-0.84 0.46-0.758 0.677-0.704 0.84-0.623 1.029-0.542 1.192-0.488 1.381-0.406 1.571-0.325 1.733-0.271 1.923-0.162 2.085-0.108 2.275-0.054 3.44 0.135zM21.694 5.85l-0.623 0.894-0.217 1.11 0.217 1.11 0.623 0.921 0.894 0.596 1.11 0.244 1.11-0.244 0.894-0.596 0.623-0.921 0.217-1.11-0.217-1.11-0.623-0.894-0.894-0.596-1.11-0.244-1.11 0.244zM57.146 16.548l0.758 0.163 0.867 0.325 0.948 0.488 0.975 0.731 0.975 0.948 0.948 1.273 0.867 1.598 0.758 1.977 0.569 2.383 0.379 2.817 0.135 3.331-0.163 3.331-0.433 2.817-0.65 2.329-0.867 1.923-0.975 1.544-1.083 1.219-1.137 0.894-1.137 0.65-1.083 0.433-0.975 0.244-0.867 0.135-0.65 0.054-0.433-0.027h-22.263v2.221h15.817l0.027 7.475 0.054 0.975-0.135 0.921-0.298 0.84-0.46 0.785-0.677 0.677-0.84 0.65-1.029 0.542-1.192 0.46-1.381 0.406-1.571 0.352-1.733 0.244-1.923 0.19-2.085 0.108-2.275 0.027-3.44-0.108-2.898-0.379-2.438-0.542-1.977-0.677-1.598-0.812-1.219-0.894-0.921-0.921-0.677-0.921-0.433-0.894-0.271-0.812-0.108-0.677-0.054-0.542 0.027-0.352v-14.462l0.135-1.733 0.352-1.462 0.569-1.246 0.704-1.029 0.813-0.867 0.894-0.65 0.948-0.542 0.948-0.379 0.894-0.271 0.813-0.162 0.704-0.108 0.569-0.054 0.352-0.027h15.817l1.869-0.135 1.598-0.379 1.354-0.569 1.11-0.758 0.894-0.867 0.731-0.948 0.542-0.975 0.406-0.975 0.271-0.948 0.19-0.867 0.108-0.758 0.054-0.569v-8.288h5.66l0.379 0.027zM39.623 55.142l-0.623 0.894-0.217 1.11 0.217 1.11 0.623 0.894 0.894 0.623 1.11 0.217 1.11-0.217 0.894-0.623 0.623-0.894 0.217-1.11-0.217-1.11-0.623-0.894-0.894-0.623-1.11-0.217-1.11 0.217z"></path>
</svg>
